<svg xmlns="http://www.w3.org/2000/svg" width="100" height="100" fill="#43b1b0" viewBox="0 0 100 100">
<path d="M69.172 11.265c-.19-.192-.502-.192-.695 0L11.64 68.03c-.193.19-.193.5 0 .69l19.206 19.185c.096.095.222.143.348.143.125 0 .25-.048.347-.143L88.38 31.14c.093-.092.145-.216.145-.347s-.052-.255-.145-.347l-19.208-19.18zM96.846 9.12l-6.32-6.31C88.714.997 86.302 0 83.737 0c-2.565 0-4.978.998-6.79 2.81l-6.32 6.31c-.093.092-.145.216-.145.347 0 .13.053.254.146.346l19.207 19.182c.092.092.218.144.348.144.132 0 .256-.053.347-.145l6.32-6.31c1.813-1.813 2.812-4.22 2.812-6.784 0-2.56-1-4.968-2.814-6.78zM10.358 69.967c-.122-.12-.296-.172-.464-.13-.167.04-.3.166-.35.33L.363 99.364c-.056.178-.007.37.126.498.094.092.217.14.342.14.054 0 .11-.01.164-.03l28.387-10.01c.16-.057.278-.19.315-.355.037-.164-.012-.337-.132-.455L10.358 69.967z"/>
</svg>
