<svg xmlns="http://www.w3.org/2000/svg" width="933.333" height="933.333" version="1" viewBox="0 0 700.000000 700.000000"><path d="M576.9.4c-.2.2-2 .7-4.1 1-7.7 1.2-20.9 7.2-27.3 12.3C540.1 18 493 65.3 493 66.4 493 68 629.6 204 631.2 204c1.5 0 49-47.1 53.4-53 4.3-5.7 10.1-19 11.6-26.5 2.2-10.6 1.1-27.1-2.2-35-3.4-8.3-5.8-12.7-9.3-17.5-5.3-7.2-52.3-54-59.7-59.5C619.6 8.6 612 5 602.5 2 598.8.8 577.8-.5 576.9.4zM280.7 277.2C170.9 386.8 81 477.3 80.8 478.2 80.4 480.6 215.7 616 218.4 616c2 0 401.6-398.5 401.6-400.4C620 213.8 483.6 78 481.9 78c-.9 0-91.4 89.7-201.2 199.2zM67.2 490.2c-.7.7-1.2 1.7-1.2 2.4s-1.8 7-4.1 14.1c-2.2 7-4.7 14.8-5.4 17.3-.7 2.5-7.3 23.2-14.5 46s-13.5 42.8-14 44.5c-.4 1.6-2.2 7.3-3.8 12.5C2 696.7 2.6 694.8 2.9 697.7c.3 2.9 4.9 1.9 25.2-5.3 11.8-4.1 25-8.8 29.4-10.4 4.4-1.5 11.8-4.2 16.5-5.8 15.9-5.7 42.5-15 61.5-21.7 10.5-3.7 22.6-7.9 27-9.5 4.4-1.6 15.2-5.4 24-8.5 18.5-6.4 20.9-7.5 21.3-9.6.4-2-135.5-137.9-137.8-137.9-.9 0-2.1.5-2.8 1.2z"/></svg>
